<?xml version="1.0" encoding="UTF-8"?>
<svg xmlns="http://www.w3.org/2000/svg" viewBox="0 0 1024 1024" width="1024" height="1024">
  <defs>
    <clipPath id="sq"><rect x="0" y="0" width="1024" height="1024" rx="230" ry="230"/></clipPath>
  </defs>
  <g clip-path="url(#sq)">
    <rect x="0" y="0" width="1024" height="1024" fill="#F2D94E"/>
    <g transform="translate(356.54,387.98) scale(0.026923)">
    <path fill-rule="evenodd" fill="#0a0e16" d="M4568 17535 c-188 -38 -316 -176 -338 -363 -5 -46 -9 -737 -10 -1605
0 -1275 2 -1526 13 -1536 21 -16 1848 -15 1871 2 15 11 16 148 14 1762 l-3
1750 -740 2 c-585 1 -754 -2 -807 -12z"/>
    <path fill-rule="evenodd" fill="#0a0e16" d="M6825 17538 c-2 -7 -6 -797 -9 -1754 -5 -1419 -3 -1744 7 -1753 15
-11 3584 -17 3657 -5 22 4 40 11 40 17 0 19 -319 598 -510 927 -37 63 -87 151
-110 195 -24 44 -96 172 -160 285 -64 113 -148 261 -185 330 -38 69 -90 159
-115 200 -49 78 -112 190 -240 425 -190 349 -421 737 -484 813 -113 138 -186
199 -306 255 -162 75 -178 77 -923 77 -517 0 -659 -3 -662 -12z"/>
    <path fill-rule="evenodd" fill="#0a0e16" d="M16296 14745 c-80 -42 -409 -259 -566 -374 -154 -112 -330 -271 -408
-366 -152 -186 -218 -325 -253 -535 -14 -80 -20 -8171 -7 -8325 21 -243 99
-429 267 -638 178 -222 354 -358 546 -422 161 -54 176 -55 1388 -55 1113 0
1117 0 1117 20 0 14 -19 32 -57 57 -123 77 -302 200 -398 272 -290 218 -653
607 -866 927 -216 323 -336 568 -487 989 -83 231 -96 279 -172 644 -58 276
-54 -30 -57 4061 -2 2059 -7 3748 -11 3752 -4 4 -20 1 -36 -7z"/>
    <path fill-rule="evenodd" fill="#0a0e16" d="M4011 13242 c-20 -20 -79 -84 -131 -142 -52 -58 -133 -145 -180 -195
-47 -49 -140 -148 -205 -220 -66 -71 -143 -155 -171 -185 -199 -215 -394 -428
-419 -459 -16 -20 -59 -70 -95 -111 -173 -199 -323 -496 -375 -746 -32 -155
-35 -328 -35 -2060 0 -1457 2 -1734 14 -1734 25 0 132 190 557 983 77 142 163
302 193 355 66 119 187 347 376 707 99 188 395 721 457 820 271 441 684 861
1159 1183 194 131 494 287 759 395 703 286 1567 363 2310 206 77 -16 153 -32
170 -36 59 -11 352 -101 450 -137 255 -95 610 -276 803 -409 41 -29 98 -68
127 -87 235 -158 590 -501 2706 -2611 1355 -1353 2163 -2148 2189 -2157 10 -4
12 856 10 4045 -1 1511 0 1485 -56 1658 -33 101 -122 280 -182 365 -97 138
-271 310 -387 382 -194 120 -393 193 -595 218 -57 7 -1581 10 -4748 10 l-4664
0 -37 -38z"/>
    <path fill-rule="evenodd" fill="#0a0e16" d="M7110 11700 c-709 -41 -1339 -302 -1871 -775 -130 -116 -314 -314
-393 -425 -78 -107 -228 -364 -369 -630 -66 -124 -141 -261 -167 -305 -51 -86
-161 -285 -193 -350 -11 -22 -61 -112 -112 -200 -50 -88 -129 -230 -175 -315
-45 -85 -104 -191 -130 -235 -79 -133 -174 -303 -240 -430 -34 -66 -95 -178
-135 -250 -78 -139 -339 -613 -361 -655 -7 -14 -57 -106 -112 -205 -129 -234
-229 -418 -286 -529 -26 -48 -71 -132 -102 -185 -31 -53 -98 -171 -149 -263
-51 -92 -115 -204 -142 -250 -116 -200 -218 -443 -267 -643 -50 -199 -66 -326
-66 -513 0 -204 16 -332 66 -517 87 -322 202 -521 459 -793 251 -266 610 -477
970 -570 259 -68 -153 -63 4985 -59 4197 3 4663 5 4735 19 379 75 680 206 945
412 338 262 545 525 708 901 150 347 185 830 92 1280 -51 248 -198 552 -369
765 -66 81 -300 338 -318 348 -7 5 -217 210 -466 458 -248 247 -524 519 -612
604 -237 230 -940 914 -1175 1144 -113 111 -275 269 -360 351 -85 82 -229 222
-320 310 -91 88 -266 257 -389 375 -123 118 -245 235 -270 260 -125 121 -457
444 -631 614 -264 258 -521 501 -600 567 -348 294 -781 514 -1190 604 -333 74
-673 103 -990 85z m286 -971 c396 -39 803 -199 1079 -423 536 -436 814 -970
832 -1602 8 -261 -23 -500 -89 -699 -107 -318 -281 -597 -529 -845 -198 -198
-459 -367 -739 -477 -403 -159 -911 -186 -1355 -73 -516 132 -978 469 -1278
931 -130 201 -185 341 -262 674 -56 240 -51 624 10 890 25 105 94 311 135 400
102 223 302 500 468 649 374 335 776 518 1277 579 69 9 349 6 451 -4z m-3290
-4924 c125 -62 184 -151 184 -282 0 -115 -58 -194 -188 -255 -52 -25 -82 -32
-177 -39 -269 -20 -465 -148 -570 -372 -51 -107 -65 -175 -65 -309 0 -98 4
-128 23 -182 59 -160 204 -326 354 -403 91 -47 138 -59 290 -72 131 -12 187
-35 247 -101 167 -185 82 -440 -169 -506 -151 -41 -395 10 -660 136 -393 188
-680 586 -724 1005 -11 106 2 330 25 425 105 427 445 793 867 931 140 46 285
69 396 65 84 -4 103 -9 167 -41z m8854 21 c181 -40 398 -133 535 -231 74 -53
225 -208 287 -296 114 -159 210 -411 229 -597 20 -194 -4 -423 -60 -572 -101
-269 -285 -489 -541 -647 -285 -176 -561 -247 -770 -197 -89 21 -140 53 -193
123 -78 105 -87 215 -25 319 67 110 150 158 304 172 60 6 138 18 174 27 309
77 506 357 487 692 -9 175 -100 345 -245 462 -129 104 -179 123 -385 144 -99
10 -151 20 -183 36 -59 28 -135 105 -164 163 -28 58 -30 148 -4 201 41 88 173
182 285 204 69 14 198 12 269 -3z m-457 -989 c76 -38 150 -125 173 -204 42
-145 -32 -283 -185 -345 l-56 -23 -4040 -3 c-2576 -1 -4063 1 -4103 7 -122 19
-228 87 -275 175 -30 58 -30 175 0 231 45 86 144 161 240 184 22 5 1770 8
4113 8 l4075 -2 58 -28z"/>
    <path fill-rule="evenodd" fill="#0a0e16" d="M6925 10104 c-217 -34 -401 -102 -581 -215 -142 -89 -184 -121 -269
-209 -129 -134 -224 -267 -295 -415 -64 -133 -93 -231 -120 -400 -29 -178 -24
-355 15 -550 22 -106 38 -154 89 -266 70 -151 113 -218 220 -347 161 -193 346
-327 581 -423 420 -170 925 -149 1305 53 458 245 729 628 796 1128 58 435 -81
865 -381 1179 -311 326 -678 483 -1118 480 -84 -1 -192 -8 -242 -15z m350
-999 c93 -25 170 -72 237 -144 102 -112 133 -198 126 -353 -4 -87 -9 -106 -41
-171 -48 -98 -120 -165 -233 -219 -77 -37 -97 -42 -173 -46 -156 -8 -256 32
-369 144 -137 137 -173 319 -100 500 60 146 182 247 353 290 69 17 130 17 200
-1z"/>
    </g>
  </g>
</svg>
